<?xml version="1.0" standalone="no"?>
<!DOCTYPE svg PUBLIC "-//W3C//DTD SVG 20010904//EN"
 "http://www.w3.org/TR/2001/REC-SVG-20010904/DTD/svg10.dtd">
<svg version="1.0" xmlns="http://www.w3.org/2000/svg"
 width="2084.000000pt" height="351.000000pt" viewBox="0 0 2084.000000 351.000000"
 preserveAspectRatio="xMidYMid meet">

<g transform="translate(0.000000,351.000000) scale(0.100000,-0.100000)"
fill="#000000" stroke="none">
<path d="M960 3503 c-521 -52 -836 -307 -933 -753 -17 -78 -21 -132 -21 -295
-1 -214 9 -293 51 -430 104 -333 345 -510 799 -586 43 -7 284 -14 639 -18 553
-7 572 -8 637 -29 141 -47 209 -134 216 -278 10 -183 -83 -294 -268 -324 -41
-6 -411 -10 -1007 -10 l-943 0 0 -385 0 -386 1063 4 c1036 3 1064 3 1152 24
422 98 658 320 756 713 29 119 38 439 15 588 -71 468 -357 711 -908 771 -55 6
-305 11 -575 11 -263 0 -508 5 -545 10 -151 22 -249 88 -283 191 -26 78 -17
201 18 262 33 56 86 101 146 124 43 17 112 18 969 21 l922 3 0 389 0 390 -932
-2 c-513 0 -949 -3 -968 -5z"/>
<path d="M5150 3499 c-535 -56 -914 -298 -1129 -719 -90 -175 -139 -331 -175
-550 -54 -330 -44 -769 24 -1085 127 -579 472 -951 1004 -1081 194 -47 294
-54 759 -54 519 0 633 11 857 82 540 172 854 592 946 1263 25 181 25 609 1
784 -109 779 -497 1219 -1187 1342 -115 21 -160 23 -570 25 -245 1 -483 -2
-530 -7z m1006 -797 c242 -63 378 -191 454 -427 43 -136 60 -283 60 -523 0
-403 -60 -622 -215 -778 -113 -115 -245 -165 -484 -185 -162 -14 -707 -6 -796
11 -338 64 -501 249 -560 635 -21 132 -24 476 -6 605 59 429 230 623 597 679
32 5 241 8 464 7 375 -3 411 -4 486 -24z"/>
<path d="M8210 2248 c0 -1355 0 -1354 51 -1538 107 -382 395 -620 832 -684 88
-14 238 -16 956 -16 l851 0 0 384 0 385 -772 3 c-699 4 -779 6 -832 21 -155
46 -232 123 -271 274 -13 49 -15 223 -15 1245 l0 1188 -400 0 -400 0 0 -1262z"/>
<path d="M11562 2228 c3 -1189 5 -1290 22 -1378 51 -268 161 -471 329 -605
128 -103 261 -163 457 -207 l105 -23 745 0 c674 0 753 2 832 18 445 90 699
338 796 777 l26 115 3 1293 4 1292 -400 0 -400 0 -3 -1202 -3 -1203 -24 -69
c-44 -122 -137 -201 -281 -237 -81 -20 -1021 -20 -1100 0 -179 46 -274 149
-300 327 -6 43 -10 509 -10 1227 l0 1157 -400 0 -401 0 3 -1282z"/>
<path d="M17000 3495 c-103 -16 -228 -59 -306 -106 -79 -46 -202 -165 -257
-247 -53 -79 -110 -191 -144 -282 -17 -45 -769 -2414 -899 -2832 -5 -17 19
-18 409 -18 l414 0 417 1323 c230 727 425 1337 434 1356 44 94 193 97 230 4 8
-20 13 -314 15 -993 3 -959 3 -966 25 -1050 67 -255 235 -448 475 -545 119
-49 235 -68 402 -67 281 0 473 67 638 222 83 77 140 155 197 270 64 128 69
141 400 1194 225 713 315 985 331 1002 51 55 149 50 191 -9 l23 -32 3 -1338 2
-1337 415 0 415 0 -2 1418 -3 1417 -27 80 c-127 369 -462 585 -908 585 -320 0
-571 -109 -729 -316 -29 -38 -81 -127 -116 -199 -58 -117 -95 -228 -378 -1131
-173 -550 -322 -1012 -331 -1026 -43 -65 -144 -75 -200 -19 l-31 31 -6 983
c-5 858 -7 990 -21 1049 -98 400 -423 631 -883 627 -60 -1 -148 -7 -195 -14z"/>
</g>
</svg>
